REM DIRINDEX 1\2\4,1\2\5,1\3\6,1\3\7
REM DIRNAME cjc099,folder01,folder02,folder03,folder04,folder05,folder06
TITLE ""
FILE "bunpo2_03.mp3" MP3
  TRACK 01 AUDIO
    TITLE "7:cjc099_235"
    INDEX 01 00:00:00
  TRACK 02 AUDIO
    TITLE "0:"
    INDEX 01 00:01:42
  TRACK 03 AUDIO
    TITLE "7:cjc099_236"
    INDEX 01 00:02:16
  TRACK 04 AUDIO
    TITLE "6:cjc099_237"
    INDEX 01 00:06:18
  TRACK 05 AUDIO
    TITLE "6:cjc099_238"
    INDEX 01 00:08:24
  TRACK 06 AUDIO
    TITLE "6:cjc099_239"
    INDEX 01 00:10:53
  TRACK 07 AUDIO
    TITLE "6:cjc099_240"
    INDEX 01 00:13:18
  TRACK 08 AUDIO
    TITLE "6:cjc099_241"
    INDEX 01 00:15:62
  TRACK 09 AUDIO
    TITLE "6:cjc099_242"
    INDEX 01 00:18:50
  TRACK 10 AUDIO
    TITLE "6:cjc099_243"
    INDEX 01 00:24:53
  TRACK 11 AUDIO
    TITLE "6:cjc099_244"
    INDEX 01 00:32:58
  TRACK 12 AUDIO
    TITLE "6:cjc099_245"
    INDEX 01 00:37:42
  TRACK 13 AUDIO
    TITLE "6:cjc099_246"
    INDEX 01 00:40:73
  TRACK 14 AUDIO
    TITLE "6:cjc099_247"
    INDEX 01 00:46:07
  TRACK 15 AUDIO
    TITLE "6:cjc099_248"
    INDEX 01 00:52:53
  TRACK 16 AUDIO
    TITLE "0:"
    INDEX 01 00:57:35
  TRACK 17 AUDIO
    TITLE "5:cjc099_249"
    INDEX 01 00:58:11
  TRACK 18 AUDIO
    TITLE "4:cjc099_250"
    INDEX 01 01:01:60
  TRACK 19 AUDIO
    TITLE "4:cjc099_251"
    INDEX 01 01:03:61
  TRACK 20 AUDIO
    TITLE "4:cjc099_252"
    INDEX 01 01:05:42
  TRACK 21 AUDIO
    TITLE "4:cjc099_253"
    INDEX 01 01:07:70
  TRACK 22 AUDIO
    TITLE "4:cjc099_254"
    INDEX 01 01:10:10
  TRACK 23 AUDIO
    TITLE "4:cjc099_255"
    INDEX 01 01:13:26
  TRACK 24 AUDIO
    TITLE "4:cjc099_256"
    INDEX 01 01:18:72
  TRACK 25 AUDIO
    TITLE "4:cjc099_257"
    INDEX 01 01:27:06
  TRACK 26 AUDIO
    TITLE "4:cjc099_258"
    INDEX 01 01:31:55
  TRACK 27 AUDIO
    TITLE "4:cjc099_259"
    INDEX 01 01:35:10
  TRACK 28 AUDIO
    TITLE "4:cjc099_260"
    INDEX 01 01:39:61
  TRACK 29 AUDIO
    TITLE "4:cjc099_261"
    INDEX 01 01:46:72
  TRACK 30 AUDIO
    TITLE "0:"
    INDEX 01 01:51:28
  TRACK 31 AUDIO
    TITLE "7:cjc099_262"
    INDEX 01 01:52:67
  TRACK 32 AUDIO
    TITLE "6:cjc099_263"
    INDEX 01 01:57:11
  TRACK 33 AUDIO
    TITLE "6:cjc099_264"
    INDEX 01 02:02:15
  TRACK 34 AUDIO
    TITLE "6:cjc099_265"
    INDEX 01 02:07:24
  TRACK 35 AUDIO
    TITLE "6:cjc099_266"
    INDEX 01 02:10:10
  TRACK 36 AUDIO
    TITLE "6:cjc099_267"
    INDEX 01 02:13:01
  TRACK 37 AUDIO
    TITLE "6:cjc099_268"
    INDEX 01 02:14:04
  TRACK 38 AUDIO
    TITLE "6:cjc099_269"
    INDEX 01 02:17:24
  TRACK 39 AUDIO
    TITLE "6:cjc099_270"
    INDEX 01 02:23:21
  TRACK 40 AUDIO
    TITLE "6:cjc099_271"
    INDEX 01 02:28:00
  TRACK 41 AUDIO
    TITLE "6:cjc099_272"
    INDEX 01 02:32:57
  TRACK 42 AUDIO
    TITLE "6:cjc099_273"
    INDEX 01 02:39:31
  TRACK 43 AUDIO
    TITLE "6:cjc099_274"
    INDEX 01 02:45:69
  TRACK 44 AUDIO
    TITLE "6:cjc099_275"
    INDEX 01 02:52:14
  TRACK 45 AUDIO
    TITLE "0:"
    INDEX 01 02:57:41
  TRACK 46 AUDIO
    TITLE "5:cjc099_276"
    INDEX 01 02:58:11
  TRACK 47 AUDIO
    TITLE "4:cjc099_277"
    INDEX 01 03:02:19
  TRACK 48 AUDIO
    TITLE "4:cjc099_278"
    INDEX 01 03:06:56
  TRACK 49 AUDIO
    TITLE "4:cjc099_279"
    INDEX 01 03:11:61
  TRACK 50 AUDIO
    TITLE "4:cjc099_280"
    INDEX 01 03:14:24
  TRACK 51 AUDIO
    TITLE "4:cjc099_281"
    INDEX 01 03:16:44
  TRACK 52 AUDIO
    TITLE "4:cjc099_282"
    INDEX 01 03:17:36
  TRACK 53 AUDIO
    TITLE "4:cjc099_283"
    INDEX 01 03:20:73
  TRACK 54 AUDIO
    TITLE "4:cjc099_284"
    INDEX 01 03:27:09
  TRACK 55 AUDIO
    TITLE "4:cjc099_285"
    INDEX 01 03:32:12
  TRACK 56 AUDIO
    TITLE "4:cjc099_286"
    INDEX 01 03:37:23
  TRACK 57 AUDIO
    TITLE "4:cjc099_287"
    INDEX 01 03:44:00
  TRACK 58 AUDIO
    TITLE "4:cjc099_288"
    INDEX 01 03:50:41
  TRACK 59 AUDIO
    TITLE "4:cjc099_289"
    INDEX 01 03:57:04
  TRACK 60 AUDIO
    TITLE "0:"
    INDEX 01 04:02:27
  TRACK 61 AUDIO
    TITLE "7:cjc099_290"
    INDEX 01 04:04:00
  TRACK 62 AUDIO
    TITLE "6:cjc099_291"
    INDEX 01 04:08:02
  TRACK 63 AUDIO
    TITLE "6:cjc099_292"
    INDEX 01 04:09:29
  TRACK 64 AUDIO
    TITLE "6:cjc099_293"
    INDEX 01 04:11:30
  TRACK 65 AUDIO
    TITLE "6:cjc099_294"
    INDEX 01 04:18:00
  TRACK 66 AUDIO
    TITLE "6:cjc099_295"
    INDEX 01 04:26:29
  TRACK 67 AUDIO
    TITLE "6:cjc099_296"
    INDEX 01 04:36:32
  TRACK 68 AUDIO
    TITLE "6:cjc099_297"
    INDEX 01 04:43:71
  TRACK 69 AUDIO
    TITLE "6:cjc099_298"
    INDEX 01 04:51:64
  TRACK 70 AUDIO
    TITLE "0:"
    INDEX 01 05:00:63
  TRACK 71 AUDIO
    TITLE "5:cjc099_299"
    INDEX 01 05:01:57
  TRACK 72 AUDIO
    TITLE "4:cjc099_300"
    INDEX 01 05:05:57
  TRACK 73 AUDIO
    TITLE "4:cjc099_301"
    INDEX 01 05:07:03
  TRACK 74 AUDIO
    TITLE "4:cjc099_302"
    INDEX 01 05:08:73
  TRACK 75 AUDIO
    TITLE "4:cjc099_303"
    INDEX 01 05:15:39
  TRACK 76 AUDIO
    TITLE "4:cjc099_304"
    INDEX 01 05:24:23
  TRACK 77 AUDIO
    TITLE "4:cjc099_305"
    INDEX 01 05:34:19
  TRACK 78 AUDIO
    TITLE "4:cjc099_306"
    INDEX 01 05:41:55
  TRACK 79 AUDIO
    TITLE "4:cjc099_307"
    INDEX 01 05:49:66
  TRACK 80 AUDIO
    TITLE "0:"
    INDEX 01 05:58:12
  TRACK 81 AUDIO
    TITLE "7:cjc099_308"
    INDEX 01 05:59:70
  TRACK 82 AUDIO
    TITLE "6:cjc099_309"
    INDEX 01 06:03:74
  TRACK 83 AUDIO
    TITLE "6:cjc099_310"
    INDEX 01 06:05:32
  TRACK 84 AUDIO
    TITLE "6:cjc099_311"
    INDEX 01 06:07:27
  TRACK 85 AUDIO
    TITLE "6:cjc099_312"
    INDEX 01 06:11:52
  TRACK 86 AUDIO
    TITLE "6:cjc099_313"
    INDEX 01 06:17:13
  TRACK 87 AUDIO
    TITLE "6:cjc099_314"
    INDEX 01 06:24:58
  TRACK 88 AUDIO
    TITLE "6:cjc099_315"
    INDEX 01 06:32:42
  TRACK 89 AUDIO
    TITLE "6:cjc099_316"
    INDEX 01 06:42:21
  TRACK 90 AUDIO
    TITLE "0:"
    INDEX 01 06:46:56
  TRACK 91 AUDIO
    TITLE "5:cjc099_317"
    INDEX 01 06:47:34
  TRACK 92 AUDIO
    TITLE "4:cjc099_318"
    INDEX 01 06:51:36
  TRACK 93 AUDIO
    TITLE "4:cjc099_319"
    INDEX 01 06:53:01
  TRACK 94 AUDIO
    TITLE "4:cjc099_320"
    INDEX 01 06:55:16
  TRACK 95 AUDIO
    TITLE "4:cjc099_321"
    INDEX 01 06:59:49
  TRACK 96 AUDIO
    TITLE "4:cjc099_322"
    INDEX 01 07:04:01
  TRACK 97 AUDIO
    TITLE "4:cjc099_323"
    INDEX 01 07:11:44
  TRACK 98 AUDIO
    TITLE "4:cjc099_324"
    INDEX 01 07:19:08
  TRACK 99 AUDIO
    TITLE "4:cjc099_325"
    INDEX 01 07:27:67
  TRACK 100 AUDIO
    TITLE "0:"
    INDEX 01 07:32:19
